<mxfile host="Electron" modified="2023-12-01T22:06:21.010Z" agent="Mozilla/5.0 (Macintosh; Intel Mac OS X 10_15_7) AppleWebKit/537.36 (KHTML, like Gecko) draw.io/22.1.2 Chrome/114.0.5735.289 Electron/25.9.4 Safari/537.36" etag="KPaQaA6cVqVZutia0ZPJ" version="22.1.2" type="device">
  <diagram id="7KKgtuNoomuF8-GEewBv" name="Page-1">
    <mxGraphModel dx="1242" dy="878" grid="1" gridSize="10" guides="1" tooltips="1" connect="1" arrows="1" fold="1" page="1" pageScale="1" pageWidth="1169" pageHeight="827" math="0" shadow="0">
      <root>
        <mxCell id="0" />
        <mxCell id="1" parent="0" />
        <mxCell id="W9HmiJd4bcyx8Rg_Jk9Q-19" value="Region" style="points=[[0,0],[0.25,0],[0.5,0],[0.75,0],[1,0],[1,0.25],[1,0.5],[1,0.75],[1,1],[0.75,1],[0.5,1],[0.25,1],[0,1],[0,0.75],[0,0.5],[0,0.25]];outlineConnect=0;gradientColor=none;html=1;whiteSpace=wrap;fontSize=12;fontStyle=1;shape=mxgraph.aws4.group;grIcon=mxgraph.aws4.group_region;strokeColor=#147EBA;fillColor=none;verticalAlign=top;align=left;spacingLeft=30;fontColor=#147EBA;dashed=1;" parent="1" vertex="1">
          <mxGeometry x="570" y="80" width="430" height="700" as="geometry" />
        </mxCell>
        <mxCell id="QC82m-KxOR37NpNkJqLr-5" value="JarvisApiStack" style="fillColor=none;strokeColor=#5A6C86;dashed=1;verticalAlign=top;fontStyle=0;fontColor=#5A6C86;shadow=0;glass=0;sketch=0;" parent="1" vertex="1">
          <mxGeometry x="590" y="310" width="390" height="440" as="geometry" />
        </mxCell>
        <mxCell id="W9HmiJd4bcyx8Rg_Jk9Q-85" value="Home" style="points=[[0,0],[0.25,0],[0.5,0],[0.75,0],[1,0],[1,0.25],[1,0.5],[1,0.75],[1,1],[0.75,1],[0.5,1],[0.25,1],[0,1],[0,0.75],[0,0.5],[0,0.25]];outlineConnect=0;gradientColor=none;html=1;whiteSpace=wrap;fontSize=12;fontStyle=0;shape=mxgraph.aws4.group;grIcon=mxgraph.aws4.group_corporate_data_center;strokeColor=#5A6C86;fillColor=none;verticalAlign=top;align=left;spacingLeft=30;fontColor=#5A6C86;dashed=0;" parent="1" vertex="1">
          <mxGeometry x="194.8" y="419.5" width="190" height="220" as="geometry" />
        </mxCell>
        <mxCell id="W9HmiJd4bcyx8Rg_Jk9Q-4" value="&lt;b&gt;API Gateway&lt;/b&gt;&lt;br&gt;JarvisEventsApi" style="sketch=0;points=[[0,0,0],[0.25,0,0],[0.5,0,0],[0.75,0,0],[1,0,0],[0,1,0],[0.25,1,0],[0.5,1,0],[0.75,1,0],[1,1,0],[0,0.25,0],[0,0.5,0],[0,0.75,0],[1,0.25,0],[1,0.5,0],[1,0.75,0]];outlineConnect=0;fontColor=#232F3E;gradientColor=#945DF2;gradientDirection=north;fillColor=#5A30B5;strokeColor=#ffffff;dashed=0;verticalLabelPosition=bottom;verticalAlign=top;align=center;html=1;fontSize=12;fontStyle=0;aspect=fixed;shape=mxgraph.aws4.resourceIcon;resIcon=mxgraph.aws4.api_gateway;" parent="1" vertex="1">
          <mxGeometry x="612.24" y="490.5" width="78" height="78" as="geometry" />
        </mxCell>
        <mxCell id="W9HmiJd4bcyx8Rg_Jk9Q-5" value="&lt;b&gt;Lambda&lt;/b&gt;&lt;br&gt;Auth" style="sketch=0;points=[[0,0,0],[0.25,0,0],[0.5,0,0],[0.75,0,0],[1,0,0],[0,1,0],[0.25,1,0],[0.5,1,0],[0.75,1,0],[1,1,0],[0,0.25,0],[0,0.5,0],[0,0.75,0],[1,0.25,0],[1,0.5,0],[1,0.75,0]];outlineConnect=0;fontColor=#232F3E;gradientColor=#F78E04;gradientDirection=north;fillColor=#D05C17;strokeColor=#ffffff;dashed=0;verticalLabelPosition=bottom;verticalAlign=top;align=center;html=1;fontSize=12;fontStyle=0;aspect=fixed;shape=mxgraph.aws4.resourceIcon;resIcon=mxgraph.aws4.lambda;" parent="1" vertex="1">
          <mxGeometry x="747.74" y="360.5" width="78" height="78" as="geometry" />
        </mxCell>
        <mxCell id="W9HmiJd4bcyx8Rg_Jk9Q-6" value="&lt;b&gt;DynamoDB&lt;/b&gt;&lt;br&gt;Events" style="sketch=0;points=[[0,0,0],[0.25,0,0],[0.5,0,0],[0.75,0,0],[1,0,0],[0,1,0],[0.25,1,0],[0.5,1,0],[0.75,1,0],[1,1,0],[0,0.25,0],[0,0.5,0],[0,0.75,0],[1,0.25,0],[1,0.5,0],[1,0.75,0]];outlineConnect=0;fontColor=#232F3E;gradientColor=#4D72F3;gradientDirection=north;fillColor=#3334B9;strokeColor=#ffffff;dashed=0;verticalLabelPosition=bottom;verticalAlign=top;align=center;html=1;fontSize=12;fontStyle=0;aspect=fixed;shape=mxgraph.aws4.resourceIcon;resIcon=mxgraph.aws4.dynamodb;" parent="1" vertex="1">
          <mxGeometry x="882.74" y="555.5" width="78" height="78" as="geometry" />
        </mxCell>
        <mxCell id="W9HmiJd4bcyx8Rg_Jk9Q-16" value="&lt;font style=&quot;font-size: 12px&quot;&gt;&lt;b&gt;Home Hub&lt;/b&gt;&lt;br&gt;HomePod, HomePod mini,&lt;br&gt;Apple TV, iPad&lt;/font&gt;" style="sketch=0;outlineConnect=0;gradientColor=none;fontColor=#545B64;strokeColor=none;fillColor=#879196;dashed=0;verticalLabelPosition=bottom;verticalAlign=top;align=center;html=1;fontSize=12;fontStyle=0;aspect=fixed;shape=mxgraph.aws4.illustration_devices;pointerEvents=1" parent="1" vertex="1">
          <mxGeometry x="239.8" y="475.8" width="100" height="73" as="geometry" />
        </mxCell>
        <mxCell id="W9HmiJd4bcyx8Rg_Jk9Q-21" value="&lt;b&gt;CDK&lt;/b&gt;" style="sketch=0;points=[[0,0,0],[0.25,0,0],[0.5,0,0],[0.75,0,0],[1,0,0],[0,1,0],[0.25,1,0],[0.5,1,0],[0.75,1,0],[1,1,0],[0,0.25,0],[0,0.5,0],[0,0.75,0],[1,0.25,0],[1,0.5,0],[1,0.75,0]];outlineConnect=0;fontColor=#232F3E;gradientColor=#4D72F3;gradientDirection=north;fillColor=#3334B9;strokeColor=#ffffff;dashed=0;verticalLabelPosition=bottom;verticalAlign=top;align=center;html=1;fontSize=12;fontStyle=0;aspect=fixed;shape=mxgraph.aws4.resourceIcon;resIcon=mxgraph.aws4.cloud_development_kit;" parent="1" vertex="1">
          <mxGeometry x="340.2" y="160" width="78" height="78" as="geometry" />
        </mxCell>
        <mxCell id="W9HmiJd4bcyx8Rg_Jk9Q-23" value="&lt;b&gt;CloudFormation&lt;br&gt;&lt;/b&gt;JarvisApiStack&lt;b&gt;&lt;br&gt;&lt;/b&gt;" style="sketch=0;points=[[0,0,0],[0.25,0,0],[0.5,0,0],[0.75,0,0],[1,0,0],[0,1,0],[0.25,1,0],[0.5,1,0],[0.75,1,0],[1,1,0],[0,0.25,0],[0,0.5,0],[0,0.75,0],[1,0.25,0],[1,0.5,0],[1,0.75,0]];points=[[0,0,0],[0.25,0,0],[0.5,0,0],[0.75,0,0],[1,0,0],[0,1,0],[0.25,1,0],[0.5,1,0],[0.75,1,0],[1,1,0],[0,0.25,0],[0,0.5,0],[0,0.75,0],[1,0.25,0],[1,0.5,0],[1,0.75,0]];outlineConnect=0;fontColor=#232F3E;gradientColor=#F34482;gradientDirection=north;fillColor=#BC1356;strokeColor=#ffffff;dashed=0;verticalLabelPosition=bottom;verticalAlign=top;align=center;html=1;fontSize=12;fontStyle=0;aspect=fixed;shape=mxgraph.aws4.resourceIcon;resIcon=mxgraph.aws4.cloudformation;" parent="1" vertex="1">
          <mxGeometry x="600" y="160" width="78" height="78" as="geometry" />
        </mxCell>
        <mxCell id="W9HmiJd4bcyx8Rg_Jk9Q-27" value="&lt;b&gt;GitHub&lt;br&gt;+ Actions&lt;/b&gt;" style="dashed=0;outlineConnect=0;html=1;align=center;labelPosition=center;verticalLabelPosition=bottom;verticalAlign=top;shape=mxgraph.weblogos.github" parent="1" vertex="1">
          <mxGeometry x="270.2" y="90" width="60.5" height="60.5" as="geometry" />
        </mxCell>
        <mxCell id="W9HmiJd4bcyx8Rg_Jk9Q-7" value="&lt;b&gt;Lambda&lt;/b&gt;&lt;br&gt;Create" style="sketch=0;points=[[0,0,0],[0.25,0,0],[0.5,0,0],[0.75,0,0],[1,0,0],[0,1,0],[0.25,1,0],[0.5,1,0],[0.75,1,0],[1,1,0],[0,0.25,0],[0,0.5,0],[0,0.75,0],[1,0.25,0],[1,0.5,0],[1,0.75,0]];outlineConnect=0;fontColor=#232F3E;gradientColor=#F78E04;gradientDirection=north;fillColor=#D05C17;strokeColor=#ffffff;dashed=0;verticalLabelPosition=bottom;verticalAlign=top;align=center;html=1;fontSize=12;fontStyle=0;aspect=fixed;shape=mxgraph.aws4.resourceIcon;resIcon=mxgraph.aws4.lambda;" parent="1" vertex="1">
          <mxGeometry x="747.74" y="490.5" width="78" height="78" as="geometry" />
        </mxCell>
        <mxCell id="W9HmiJd4bcyx8Rg_Jk9Q-8" value="&lt;b&gt;Lambda&lt;/b&gt;&lt;br&gt;Read" style="sketch=0;points=[[0,0,0],[0.25,0,0],[0.5,0,0],[0.75,0,0],[1,0,0],[0,1,0],[0.25,1,0],[0.5,1,0],[0.75,1,0],[1,1,0],[0,0.25,0],[0,0.5,0],[0,0.75,0],[1,0.25,0],[1,0.5,0],[1,0.75,0]];outlineConnect=0;fontColor=#232F3E;gradientColor=#F78E04;gradientDirection=north;fillColor=#D05C17;strokeColor=#ffffff;dashed=0;verticalLabelPosition=bottom;verticalAlign=top;align=center;html=1;fontSize=12;fontStyle=0;aspect=fixed;shape=mxgraph.aws4.resourceIcon;resIcon=mxgraph.aws4.lambda;" parent="1" vertex="1">
          <mxGeometry x="747.74" y="620.5" width="78" height="78" as="geometry" />
        </mxCell>
        <mxCell id="W9HmiJd4bcyx8Rg_Jk9Q-62" value="" style="group" parent="1" vertex="1" connectable="0">
          <mxGeometry x="200" y="150.5" width="120" height="118" as="geometry" />
        </mxCell>
        <mxCell id="W9HmiJd4bcyx8Rg_Jk9Q-45" value="" style="sketch=0;outlineConnect=0;fontColor=#232F3E;gradientColor=none;fillColor=#B3B3B3;strokeColor=none;dashed=0;verticalLabelPosition=bottom;verticalAlign=top;align=center;html=1;fontSize=12;fontStyle=0;aspect=fixed;pointerEvents=1;shape=mxgraph.aws4.user;" parent="W9HmiJd4bcyx8Rg_Jk9Q-62" vertex="1">
          <mxGeometry width="58.5" height="58.5" as="geometry" />
        </mxCell>
        <mxCell id="W9HmiJd4bcyx8Rg_Jk9Q-18" value="&lt;b&gt;&lt;br&gt;&lt;/b&gt;" style="sketch=0;outlineConnect=0;gradientColor=none;fontColor=#545B64;strokeColor=none;fillColor=#879196;dashed=0;verticalLabelPosition=bottom;verticalAlign=top;align=center;html=1;fontSize=12;fontStyle=0;aspect=fixed;shape=mxgraph.aws4.illustration_devices;pointerEvents=1" parent="W9HmiJd4bcyx8Rg_Jk9Q-62" vertex="1">
          <mxGeometry x="20" y="45" width="100" height="73" as="geometry" />
        </mxCell>
        <mxCell id="W9HmiJd4bcyx8Rg_Jk9Q-64" value="" style="edgeStyle=orthogonalEdgeStyle;html=1;endArrow=block;elbow=vertical;startArrow=none;endFill=1;strokeColor=#FF9F0A;rounded=0;fontSize=12;entryX=0;entryY=0.5;entryDx=0;entryDy=0;entryPerimeter=0;exitX=1;exitY=0.5;exitDx=0;exitDy=0;exitPerimeter=0;strokeWidth=2;" parent="1" source="W9HmiJd4bcyx8Rg_Jk9Q-4" target="W9HmiJd4bcyx8Rg_Jk9Q-5" edge="1">
          <mxGeometry width="100" relative="1" as="geometry">
            <mxPoint x="582" y="371.5" as="sourcePoint" />
            <mxPoint x="682" y="371.5" as="targetPoint" />
          </mxGeometry>
        </mxCell>
        <mxCell id="W9HmiJd4bcyx8Rg_Jk9Q-65" value="" style="edgeStyle=orthogonalEdgeStyle;html=1;endArrow=block;elbow=vertical;startArrow=none;endFill=1;strokeColor=#FF9F0A;rounded=0;fontSize=12;entryX=0;entryY=0.5;entryDx=0;entryDy=0;entryPerimeter=0;exitX=1;exitY=0.5;exitDx=0;exitDy=0;exitPerimeter=0;strokeWidth=2;" parent="1" source="W9HmiJd4bcyx8Rg_Jk9Q-4" target="W9HmiJd4bcyx8Rg_Jk9Q-7" edge="1">
          <mxGeometry width="100" relative="1" as="geometry">
            <mxPoint x="700.24" y="539.5" as="sourcePoint" />
            <mxPoint x="757.74" y="409.5" as="targetPoint" />
          </mxGeometry>
        </mxCell>
        <mxCell id="W9HmiJd4bcyx8Rg_Jk9Q-66" value="" style="edgeStyle=orthogonalEdgeStyle;html=1;endArrow=block;elbow=vertical;startArrow=none;endFill=1;strokeColor=#FF9F0A;rounded=0;fontSize=12;entryX=0;entryY=0.5;entryDx=0;entryDy=0;entryPerimeter=0;exitX=1;exitY=0.5;exitDx=0;exitDy=0;exitPerimeter=0;strokeWidth=2;" parent="1" source="W9HmiJd4bcyx8Rg_Jk9Q-4" target="W9HmiJd4bcyx8Rg_Jk9Q-8" edge="1">
          <mxGeometry width="100" relative="1" as="geometry">
            <mxPoint x="700.24" y="539.5" as="sourcePoint" />
            <mxPoint x="757.74" y="539.5" as="targetPoint" />
          </mxGeometry>
        </mxCell>
        <mxCell id="W9HmiJd4bcyx8Rg_Jk9Q-67" value="" style="edgeStyle=orthogonalEdgeStyle;html=1;endArrow=block;elbow=vertical;startArrow=none;endFill=1;strokeColor=#FF9F0A;rounded=0;fontSize=12;entryX=0;entryY=0.5;entryDx=0;entryDy=0;entryPerimeter=0;exitX=1;exitY=0.5;exitDx=0;exitDy=0;exitPerimeter=0;strokeWidth=2;" parent="1" source="W9HmiJd4bcyx8Rg_Jk9Q-7" target="W9HmiJd4bcyx8Rg_Jk9Q-6" edge="1">
          <mxGeometry width="100" relative="1" as="geometry">
            <mxPoint x="700.24" y="539.5" as="sourcePoint" />
            <mxPoint x="757.74" y="669.5" as="targetPoint" />
          </mxGeometry>
        </mxCell>
        <mxCell id="W9HmiJd4bcyx8Rg_Jk9Q-68" value="" style="edgeStyle=orthogonalEdgeStyle;html=1;endArrow=block;elbow=vertical;startArrow=none;endFill=1;strokeColor=#FF9F0A;rounded=0;fontSize=12;entryX=0;entryY=0.5;entryDx=0;entryDy=0;entryPerimeter=0;exitX=1;exitY=0.5;exitDx=0;exitDy=0;exitPerimeter=0;strokeWidth=2;" parent="1" source="W9HmiJd4bcyx8Rg_Jk9Q-8" target="W9HmiJd4bcyx8Rg_Jk9Q-6" edge="1">
          <mxGeometry width="100" relative="1" as="geometry">
            <mxPoint x="835.74" y="539.5" as="sourcePoint" />
            <mxPoint x="892.7399999999998" y="604.5" as="targetPoint" />
          </mxGeometry>
        </mxCell>
        <mxCell id="W9HmiJd4bcyx8Rg_Jk9Q-74" value="" style="edgeStyle=orthogonalEdgeStyle;html=1;endArrow=block;elbow=vertical;startArrow=none;endFill=1;strokeColor=#FF9F0A;rounded=0;fontSize=12;entryX=0;entryY=0.5;entryDx=0;entryDy=0;entryPerimeter=0;exitX=1;exitY=0.5;exitDx=0;exitDy=0;exitPerimeter=0;strokeWidth=2;" parent="1" source="W9HmiJd4bcyx8Rg_Jk9Q-21" target="W9HmiJd4bcyx8Rg_Jk9Q-23" edge="1">
          <mxGeometry width="100" relative="1" as="geometry">
            <mxPoint x="893.74" y="638.5" as="sourcePoint" />
            <mxPoint x="950.7399999999998" y="703.5" as="targetPoint" />
          </mxGeometry>
        </mxCell>
        <mxCell id="hvt1rebPlR8UIf42DyZQ-2" value="&lt;b&gt;&amp;nbsp;Deploy&amp;nbsp;&lt;/b&gt;" style="edgeLabel;html=1;align=center;verticalAlign=middle;resizable=0;points=[];" parent="W9HmiJd4bcyx8Rg_Jk9Q-74" vertex="1" connectable="0">
          <mxGeometry x="-0.3026" y="2" relative="1" as="geometry">
            <mxPoint x="-12" y="2" as="offset" />
          </mxGeometry>
        </mxCell>
        <mxCell id="W9HmiJd4bcyx8Rg_Jk9Q-77" value="" style="html=1;endArrow=block;elbow=vertical;startArrow=none;endFill=1;strokeColor=#FF9F0A;fontSize=12;entryX=0;entryY=0.5;entryDx=0;entryDy=0;entryPerimeter=0;rounded=0;exitX=1;exitY=0.5;exitDx=0;exitDy=0;strokeWidth=2;" parent="1" source="W9HmiJd4bcyx8Rg_Jk9Q-85" target="W9HmiJd4bcyx8Rg_Jk9Q-4" edge="1">
          <mxGeometry width="100" relative="1" as="geometry">
            <mxPoint x="698.24" y="608.5" as="sourcePoint" />
            <mxPoint x="755.74" y="738.5" as="targetPoint" />
          </mxGeometry>
        </mxCell>
        <mxCell id="hvt1rebPlR8UIf42DyZQ-4" value="&lt;b&gt;&amp;nbsp;Write Event&lt;/b&gt;&amp;nbsp;" style="edgeLabel;html=1;align=center;verticalAlign=middle;resizable=0;points=[];" parent="W9HmiJd4bcyx8Rg_Jk9Q-77" vertex="1" connectable="0">
          <mxGeometry x="0.2856" y="2" relative="1" as="geometry">
            <mxPoint x="-51" y="2" as="offset" />
          </mxGeometry>
        </mxCell>
        <mxCell id="W9HmiJd4bcyx8Rg_Jk9Q-78" value="" style="html=1;endArrow=block;elbow=vertical;startArrow=none;endFill=1;strokeColor=#FF9F0A;fontSize=12;entryX=0;entryY=0.25;entryDx=0;entryDy=0;entryPerimeter=0;rounded=0;strokeWidth=2;edgeStyle=orthogonalEdgeStyle;" parent="1" source="W9HmiJd4bcyx8Rg_Jk9Q-18" target="W9HmiJd4bcyx8Rg_Jk9Q-4" edge="1">
          <mxGeometry width="100" relative="1" as="geometry">
            <mxPoint x="230" y="350.5" as="sourcePoint" />
            <mxPoint x="620.24" y="608.5" as="targetPoint" />
            <Array as="points">
              <mxPoint x="270" y="290" />
              <mxPoint x="550" y="290" />
              <mxPoint x="550" y="510" />
            </Array>
          </mxGeometry>
        </mxCell>
        <mxCell id="hvt1rebPlR8UIf42DyZQ-3" value="&amp;nbsp;&lt;b&gt;Read Events&lt;/b&gt;&amp;nbsp;" style="edgeLabel;html=1;align=center;verticalAlign=middle;resizable=0;points=[];" parent="W9HmiJd4bcyx8Rg_Jk9Q-78" vertex="1" connectable="0">
          <mxGeometry x="-0.241" y="-2" relative="1" as="geometry">
            <mxPoint as="offset" />
          </mxGeometry>
        </mxCell>
        <mxCell id="W9HmiJd4bcyx8Rg_Jk9Q-90" value="" style="group" parent="1" vertex="1" connectable="0">
          <mxGeometry x="410" y="550" width="140" height="124.70000000000005" as="geometry" />
        </mxCell>
        <mxCell id="W9HmiJd4bcyx8Rg_Jk9Q-50" value="&lt;font style=&quot;font-size: 12px&quot;&gt;majorThing&lt;br&gt;minorThing&lt;br&gt;event&lt;/font&gt;" style="dashed=0;outlineConnect=0;html=1;align=center;labelPosition=center;verticalLabelPosition=bottom;verticalAlign=top;shape=mxgraph.weblogos.json_2;fontSize=12;fillColor=#B3B3B3;" parent="W9HmiJd4bcyx8Rg_Jk9Q-90" vertex="1">
          <mxGeometry x="29.80000000000001" y="99.5" width="80.4" height="25.200000000000003" as="geometry" />
        </mxCell>
        <mxCell id="W9HmiJd4bcyx8Rg_Jk9Q-75" value="&lt;b style=&quot;color: rgb(0 , 0 , 0) ; font-family: &amp;#34;helvetica&amp;#34; ; font-style: normal ; letter-spacing: normal ; text-indent: 0px ; text-transform: none ; word-spacing: 0px ; font-size: 12px&quot;&gt;Home Automation&lt;br&gt;Shortcut&lt;br&gt;&lt;br&gt;Web Requests -&lt;br&gt;Get Contents of URL&lt;br&gt;&lt;/b&gt;&lt;span style=&quot;color: rgb(0 , 0 , 0) ; font-family: &amp;#34;helvetica&amp;#34; ; font-style: normal ; letter-spacing: normal ; text-indent: 0px ; text-transform: none ; word-spacing: 0px ; font-size: 12px ; background-color: rgb(248 , 249 , 250)&quot;&gt;POST /events&lt;/span&gt;" style="text;whiteSpace=wrap;html=1;fontSize=12;align=center;" parent="W9HmiJd4bcyx8Rg_Jk9Q-90" vertex="1">
          <mxGeometry width="140" height="90" as="geometry" />
        </mxCell>
        <mxCell id="QC82m-KxOR37NpNkJqLr-1" value="" style="group" parent="1" vertex="1" connectable="0">
          <mxGeometry x="395" y="320" width="170" height="109.5" as="geometry" />
        </mxCell>
        <mxCell id="W9HmiJd4bcyx8Rg_Jk9Q-56" value="&lt;font style=&quot;font-size: 12px&quot;&gt;dateTime&lt;br&gt;majorThing&lt;br&gt;minorThing&lt;br&gt;event&lt;/font&gt;" style="dashed=0;outlineConnect=0;html=1;align=center;labelPosition=center;verticalLabelPosition=bottom;verticalAlign=top;shape=mxgraph.weblogos.json_2;fontSize=12;fillColor=default;" parent="QC82m-KxOR37NpNkJqLr-1" vertex="1">
          <mxGeometry x="44.80000000000001" y="84.30000000000001" width="80.4" height="25.200000000000003" as="geometry" />
        </mxCell>
        <mxCell id="W9HmiJd4bcyx8Rg_Jk9Q-76" value="&lt;b style=&quot;color: rgb(0 , 0 , 0) ; font-family: &amp;#34;helvetica&amp;#34; ; font-size: 12px ; font-style: normal ; letter-spacing: normal ; text-indent: 0px ; text-transform: none ; word-spacing: 0px ; background-color: rgb(255 , 255 , 255)&quot;&gt;Shortcut&lt;/b&gt;&lt;br style=&quot;color: rgb(0 , 0 , 0) ; font-family: &amp;#34;helvetica&amp;#34; ; font-size: 12px ; font-style: normal ; font-weight: 400 ; letter-spacing: normal ; text-indent: 0px ; text-transform: none ; word-spacing: 0px ; background-color: rgb(255 , 255 , 255)&quot;&gt;&lt;span style=&quot;color: rgb(0 , 0 , 0) ; font-family: &amp;#34;helvetica&amp;#34; ; font-size: 12px ; font-style: normal ; font-weight: 400 ; letter-spacing: normal ; text-indent: 0px ; text-transform: none ; word-spacing: 0px ; background-color: rgb(255 , 255 , 255) ; display: inline ; float: none&quot;&gt;GET /events?&lt;br&gt;majorThing=X&lt;br&gt;&lt;/span&gt;&amp;amp;dateTime=Y&lt;br style=&quot;color: rgb(0 , 0 , 0) ; font-family: &amp;#34;helvetica&amp;#34; ; font-size: 12px ; font-style: normal ; font-weight: 400 ; letter-spacing: normal ; text-indent: 0px ; text-transform: none ; word-spacing: 0px ; background-color: rgb(255 , 255 , 255)&quot;&gt;&lt;span style=&quot;color: rgb(0 , 0 , 0) ; font-family: &amp;#34;helvetica&amp;#34; ; font-size: 12px ; font-style: normal ; font-weight: 400 ; letter-spacing: normal ; text-indent: 0px ; text-transform: none ; word-spacing: 0px ; background-color: rgb(255 , 255 , 255) ; display: inline ; float: none&quot;&gt;&amp;amp;minorThing=Z&lt;/span&gt;" style="text;whiteSpace=wrap;html=1;fontSize=12;align=center;" parent="QC82m-KxOR37NpNkJqLr-1" vertex="1">
          <mxGeometry width="170" height="60" as="geometry" />
        </mxCell>
      </root>
    </mxGraphModel>
  </diagram>
</mxfile>
